<svg xmlns="http://www.w3.org/2000/svg" width="71.014" height="66.15" viewBox="0 0 71.014 66.15">
  <g id="Сгруппировать_14" data-name="Сгруппировать 14" transform="translate(-3362.8 -1558.582)">
    <path id="Контур_3" data-name="Контур 3" d="M3432.89,1603.671h-69.166a.924.924,0,0,1,0-1.849h69.166a.924.924,0,0,1,0,1.849Z" fill="#7eaf00"/>
    <path id="Контур_4" data-name="Контур 4" d="M3423.716,1610.691H3372.9a.924.924,0,0,1,0-1.849h50.817a.924.924,0,0,1,0,1.849Z" fill="#7eaf00"/>
    <path id="Контур_5" data-name="Контур 5" d="M3410.792,1617.711h-24.969a.924.924,0,1,1,0-1.848h24.969a.924.924,0,1,1,0,1.848Z" fill="#7eaf00"/>
    <path id="Контур_6" data-name="Контур 6" d="M3403.333,1624.732h-10.052a.924.924,0,0,1,0-1.849h10.052a.924.924,0,0,1,0,1.849Z" fill="#7eaf00"/>
    <path id="Контур_7" data-name="Контур 7" d="M3398.307,1603.671a.924.924,0,0,1-.924-.924v-32.31a.924.924,0,1,1,1.848,0v32.31A.924.924,0,0,1,3398.307,1603.671Z" fill="#7eaf00"/>
    <path id="Контур_8" data-name="Контур 8" d="M3398.307,1586.2a.925.925,0,0,1-.011-1.849c6.138-.077,10.773-1.721,13.773-4.886a13.737,13.737,0,0,0,3.591-8.229c-14.562.05-16.44,6.309-16.458,6.373a.924.924,0,0,1-1.792-.452c.08-.327,2.193-7.98,19.219-7.764a.925.925,0,0,1,.91.887,15.451,15.451,0,0,1-4.129,10.457c-3.357,3.54-8.434,5.379-15.091,5.463Z" fill="#7eaf00"/>
    <path id="Контур_9" data-name="Контур 9" d="M3398.308,1589.949c-5.832-.374-10.217-2.379-13.1-5.96-4.813-5.989-3.626-14.146-3.574-14.49a.924.924,0,0,1,1.057-.773c14.689,2.311,16.456,11.843,16.524,12.248a.924.924,0,0,1-1.822.31c-.063-.35-1.609-8.233-14.021-10.565-.145,2.215-.124,7.89,3.285,12.122,2.541,3.154,6.479,4.924,11.706,5.262a.924.924,0,0,1-.059,1.846Z" fill="#7eaf00"/>
    <path id="Контур_10" data-name="Контур 10" d="M3398.306,1582.37a.924.924,0,0,1-.147-1.836c.07-.012,7.068-1.2,10.091-5.706a.925.925,0,0,1,1.535,1.031c-3.475,5.176-11.011,6.448-11.33,6.5A.952.952,0,0,1,3398.306,1582.37Z" fill="#7eaf00"/>
    <path id="Контур_11" data-name="Контур 11" d="M3398.308,1584.764a.987.987,0,0,1-.179-.017c-5.256-1.031-9.855-6.547-10.048-6.781a.924.924,0,0,1,1.425-1.177c.044.053,4.377,5.241,8.979,6.144a.924.924,0,0,1-.177,1.831Z" fill="#7eaf00"/>
    <path id="Контур_12" data-name="Контур 12" d="M3398.307,1571.361a.929.929,0,0,1-.554-.184c-4.438-3.32-2.079-9.423-.212-12.187a.892.892,0,0,1,.787-.406.923.923,0,0,1,.767.441c2.4,3.921,3.17,7.113,2.278,9.49a4.735,4.735,0,0,1-2.79,2.8A.937.937,0,0,1,3398.307,1571.361Zm.006-9.984c-.981,1.984-2.294,5.693.131,7.971a2.968,2.968,0,0,0,1.212-1.519C3400.056,1566.724,3400.1,1564.74,3398.313,1561.377Z" fill="#7eaf00"/>
    <path id="Контур_13" data-name="Контур 13" d="M3408.293,1603.671a.932.932,0,0,1-.554-.184c-4.438-3.321-2.08-9.424-.212-12.188a.883.883,0,0,1,.786-.406.927.927,0,0,1,.768.441c2.4,3.921,3.169,7.114,2.277,9.491a4.739,4.739,0,0,1-2.79,2.8A.93.93,0,0,1,3408.293,1603.671Zm.006-9.985c-.981,1.984-2.294,5.693.13,7.971a2.964,2.964,0,0,0,1.212-1.518C3410.041,1599.034,3410.084,1597.049,3408.3,1593.686Z" fill="#7eaf00"/>
    <path id="Контур_14" data-name="Контур 14" d="M3421,1603.671a.93.93,0,0,1-.553-.184c-6.295-4.709-2.892-13.449-.212-17.413a.878.878,0,0,1,.786-.406.923.923,0,0,1,.767.441c3.478,5.673,4.6,10.262,3.33,13.641a6.528,6.528,0,0,1-3.842,3.879A.941.941,0,0,1,3421,1603.671Zm0-15.257c-1.507,2.8-4.336,9.422.145,13.264a4.773,4.773,0,0,0,2.257-2.615C3424.064,1597.265,3424.132,1593.99,3421,1588.414Z" fill="#7eaf00"/>
    <path id="Контур_15" data-name="Контур 15" d="M3388.322,1603.671a.927.927,0,0,1-.275-.042,4.736,4.736,0,0,1-2.79-2.805c-.892-2.376-.126-5.569,2.277-9.49a.924.924,0,0,1,.768-.441.9.9,0,0,1,.786.406c1.867,2.764,4.226,8.867-.212,12.188A.932.932,0,0,1,3388.322,1603.671Zm-.007-9.985c-1.8,3.391-1.743,5.383-1.328,6.489a2.96,2.96,0,0,0,1.2,1.482C3390.609,1599.379,3389.3,1595.67,3388.315,1593.686Z" fill="#7eaf00"/>
    <path id="Контур_16" data-name="Контур 16" d="M3375.61,1603.671a.935.935,0,0,1-.275-.042,6.526,6.526,0,0,1-3.842-3.879c-1.268-3.379-.148-7.969,3.33-13.641a.923.923,0,0,1,.767-.441.874.874,0,0,1,.786.406c2.679,3.964,6.083,12.7-.212,17.413A.931.931,0,0,1,3375.61,1603.671Zm0-15.258c-3.129,5.577-3.062,8.852-2.4,10.649a4.776,4.776,0,0,0,2.257,2.616C3379.96,1597.828,3377.123,1591.206,3375.612,1588.413Z" fill="#7eaf00"/>
  </g>
</svg>
