<svg xmlns="http://www.w3.org/2000/svg" width="69.032" height="60.052"><g data-name="Сгруппировать 16" fill="#7eaf00"><path data-name="Контур 39" d="M43.281 24.449H32.25a.923.923 0 01-.924-.924V4.2a.924.924 0 01.924-.925h16.678a.924.924 0 01.924.925v7.412a.924.924 0 01-.089.4l-5.647 11.913a.925.925 0 01-.835.524zm-10.107-1.848h9.522l5.308-11.2V5.12h-14.83z"/><path data-name="Контур 40" d="M48.928 9.095H37.191a.924.924 0 110-1.848h11.737a.924.924 0 010 1.848z"/><path data-name="Контур 41" d="M12.735 19.416H5.984a.924.924 0 110-1.848h6.751a.924.924 0 110 1.848z"/><path data-name="Контур 42" d="M12.735 23.391H5.984a.924.924 0 010-1.849h6.751a.924.924 0 010 1.849z"/><path data-name="Контур 43" d="M12.735 27.365H5.984a.924.924 0 010-1.849h6.751a.924.924 0 010 1.849z"/><path data-name="Контур 44" d="M10.352 42.697a7.035 7.035 0 117.035-7.035 7.043 7.043 0 01-7.035 7.035zm0-12.221a5.187 5.187 0 105.186 5.186 5.193 5.193 0 00-5.186-5.186z"/><path data-name="Контур 45" d="M10.352 39.316a3.658 3.658 0 01-3.654-3.654.924.924 0 111.848 0 1.807 1.807 0 101.806-1.806.924.924 0 010-1.848 3.654 3.654 0 110 7.308z"/><path data-name="Контур 46" d="M25.962 36.586h-9.5a.924.924 0 01-.925-.924 5.158 5.158 0 00-1.937-4.007.925.925 0 01.583-1.642h11.422a.924.924 0 01.908 1.1 8.321 8.321 0 00-.15 1.54 8.174 8.174 0 00.468 2.707.924.924 0 01-.872 1.23zm-8.637-1.848h7.417a9.885 9.885 0 01-.224-2.089c0-.26.01-.522.032-.788h-8.3a6.945 6.945 0 011.075 2.877z"/><path data-name="Контур 47" d="M40.589 26.732a.922.922 0 01-.611-.231 8.187 8.187 0 00-5.412-2.052.924.924 0 110-1.848h6.023a.923.923 0 01.924.924v2.283a.925.925 0 01-.924.924z"/><path data-name="Контур 48" d="M25.605 31.861H14.181a.931.931 0 01-.583-.206 5.142 5.142 0 00-6.5 0 .925.925 0 01-.582.206H3.947a3.956 3.956 0 01-3.952-3.952V17.023a3.957 3.957 0 013.952-3.952h11.5l3.083-3.083a.92.92 0 01.653-.271h13.06a.924.924 0 01.924.924v11.96h1.392a.924.924 0 110 1.848 8.2 8.2 0 00-8.05 6.66.924.924 0 01-.904.752zm-11.1-1.848h10.373a10.053 10.053 0 016.453-6.875V11.565H19.578l-3.083 3.084a.924.924 0 01-.653.27H3.957a2.107 2.107 0 00-2.1 2.1v10.886a2.107 2.107 0 002.1 2.1H6.21a7 7 0 018.295.008z"/><path data-name="Контур 49" d="M34.566 42.697a10.048 10.048 0 1110.048-10.048 10.059 10.059 0 01-10.048 10.048zm0-18.248a8.2 8.2 0 108.2 8.2 8.209 8.209 0 00-8.2-8.2z"/><path data-name="Контур 50" d="M34.566 37.231a4.588 4.588 0 01-4.582-4.582.924.924 0 011.849 0 2.733 2.733 0 102.733-2.733.924.924 0 110-1.848 4.582 4.582 0 010 9.163z"/><path data-name="Контур 51" d="M68.105 42.697H25.439a.924.924 0 110-1.848h42.666a.924.924 0 110 1.848z"/><path data-name="Контур 52" d="M17.184 42.697H.924a.924.924 0 010-1.848h16.26a.924.924 0 110 1.848z"/><path data-name="Контур 53" d="M54.251 42.697a3.667 3.667 0 113.666-3.667 3.671 3.671 0 01-3.666 3.667zm0-5.484a1.818 1.818 0 101.818 1.817 1.819 1.819 0 00-1.818-1.817z"/><path data-name="Контур 54" d="M68.105 40.031h-6.06a.925.925 0 01-.654-.271l-2.548-2.547h-4.595a.925.925 0 01-.925-.925V30.98a.924.924 0 01.925-.924h7.455a.923.923 0 01.882.649l1.247 3.995 4.668 2.211a.924.924 0 01.529.835v1.361a.924.924 0 01-.924.924zm-5.678-1.848h4.441l-4.194-1.987a.922.922 0 01-.486-.559l-1.165-3.732h-5.851v3.459h4.054a.924.924 0 01.653.271z"/><path data-name="Контур 55" d="M54.251 31.905a.925.925 0 01-.671-.288l-8.745-9.214-.719 1.519a.925.925 0 01-.835.527h-1.768v1.359a.924.924 0 01-1.848 0v-2.283a.924.924 0 01.924-.924h2.107l1.046-2.208a.924.924 0 01.689-.516.915.915 0 01.816.276l9.674 10.191a.924.924 0 01-.67 1.561z"/><path data-name="Контур 56" d="M54.252 37.213a.942.942 0 01-.158-.014l-10.739-1.853a.924.924 0 01.314-1.821l10.739 1.853a.924.924 0 01-.156 1.835z"/><path data-name="Контур 57" d="M68.105 48.215h-7.3a.924.924 0 010-1.849h7.3a.924.924 0 010 1.849z"/><path data-name="Контур 58" d="M45.361 48.215h-1.849a.924.924 0 010-1.849h1.849a.924.924 0 010 1.849z"/><path data-name="Контур 59" d="M53.858 48.215h-3.4a.924.924 0 010-1.849h3.4a.924.924 0 110 1.849z"/><path data-name="Контур 60" d="M60.805 48.215h-1.848a.924.924 0 010-1.849h1.848a.924.924 0 110 1.849z"/><path data-name="Контур 61" d="M43.512 48.215H21.045a.924.924 0 110-1.849h22.467a.924.924 0 110 1.849z"/><path data-name="Контур 62" d="M7.934 48.215H6.086a.924.924 0 110-1.849h1.848a.924.924 0 010 1.849z"/><path data-name="Контур 63" d="M14.973 48.215h-2.815a.924.924 0 110-1.849h2.815a.924.924 0 010 1.849z"/><path data-name="Контур 64" d="M21.045 48.215h-1.849a.924.924 0 010-1.849h1.849a.924.924 0 010 1.849z"/><path data-name="Контур 65" d="M6.086 48.215H.924a.924.924 0 010-1.849h5.162a.924.924 0 010 1.849z"/><path data-name="Контур 66" d="M68.105 54.134H59.29a.924.924 0 010-1.849h8.815a.924.924 0 010 1.849z"/><path data-name="Контур 67" d="M51.505 54.134h-14.2a.924.924 0 010-1.849h14.2a.924.924 0 010 1.849z"/><path data-name="Контур 68" d="M23.182 54.134h-1.848a.924.924 0 010-1.849h1.848a.924.924 0 110 1.849z"/><path data-name="Контур 69" d="M30.854 54.134h-3.069a.924.924 0 010-1.849h3.069a.924.924 0 010 1.849z"/><path data-name="Контур 70" d="M37.305 54.134h-1.849a.924.924 0 010-1.849h1.849a.924.924 0 010 1.849z"/><path data-name="Контур 71" d="M21.334 54.134H.924a.924.924 0 010-1.849h20.41a.924.924 0 010 1.849z"/><path data-name="Контур 72" d="M68.105 60.053h-4.89a.924.924 0 010-1.849h4.89a.924.924 0 010 1.849z"/><path data-name="Контур 73" d="M43.545 60.053h-1.848a.924.924 0 010-1.849h1.848a.924.924 0 010 1.849z"/><path data-name="Контур 74" d="M54.685 60.053h-4.456a.924.924 0 010-1.849h4.456a.924.924 0 010 1.849z"/><path data-name="Контур 75" d="M63.218 60.053H61.37a.924.924 0 110-1.849h1.848a.924.924 0 010 1.849z"/><path data-name="Контур 76" d="M41.697 60.053H17.184a.924.924 0 010-1.849h24.513a.924.924 0 010 1.849z"/><path data-name="Контур 77" d="M8.32 60.053H6.472a.924.924 0 010-1.849H8.32a.924.924 0 110 1.849z"/><path data-name="Контур 78" d="M17.184 60.053h-1.848a.924.924 0 110-1.849h1.848a.924.924 0 010 1.849z"/><path data-name="Контур 79" d="M6.472 60.053H.924a.924.924 0 010-1.849h5.548a.924.924 0 010 1.849z"/><path data-name="Контур 80" d="M6.424 11.96h-5.5A.924.924 0 010 11.036V7.852a.924.924 0 01.924-.925h5.5a.925.925 0 01.924.925v3.184a.924.924 0 01-.924.924zm-4.576-1.849h3.651V8.776H1.848z"/><path data-name="Контур 81" d="M25.259 11.565h-3.6a.924.924 0 01-.925-.924V8.808l-9.97-3.3-4.361 1.423v.918a.925.925 0 01-.924.925h-3.6a.924.924 0 01-.924-.924v-2.9a2.719 2.719 0 011.88-2.591l6.8-2.22a1.934 1.934 0 011.093-.1L23.6 3.613a2.729 2.729 0 012.587 2.722v4.3a.924.924 0 01-.928.93zM22.58 9.717h1.754V6.339a.878.878 0 00-.877-.878.941.941 0 01-.247-.033L10.373 1.865a.789.789 0 00-.166.037l-6.806 2.22a.874.874 0 00-.6.834v1.97h1.754v-.664a.923.923 0 01.638-.878l5.287-1.726a.933.933 0 01.577 0l10.893 3.6a.924.924 0 01.634.877z"/><path data-name="Контур 82" d="M10.762 5.461a.925.925 0 01-.92-.851l-.287-3.6a.924.924 0 011.843-.146l.287 3.6a.926.926 0 01-.849.995c-.025.002-.049.002-.074.002z"/><path data-name="Контур 83" d="M19.947 8.5a.924.924 0 01-.606-1.623l3.511-3.038a.925.925 0 111.21 1.4l-3.511 3.038a.922.922 0 01-.604.223z"/><path data-name="Контур 84" d="M21.654 9.065a.925.925 0 01-.141-1.838l3.6-.565a.925.925 0 01.286 1.827l-3.6.565a1.008 1.008 0 01-.145.011z"/><path data-name="Контур 85" d="M44.577 21.714h-7.386a.924.924 0 01-.924-.924v-3.8a.925.925 0 011.849 0v2.878h6.461a.924.924 0 010 1.849z"/><path data-name="Контур 86" d="M46.227 18.231a.921.921 0 01-.417-.1l-3.168-1.607a.924.924 0 11.836-1.648l3.168 1.607a.924.924 0 01-.419 1.748z"/></g></svg>