<svg xmlns="http://www.w3.org/2000/svg" width="71.014" height="66.15"><g data-name="Сгруппировать 14" fill="#7eaf00"><path data-name="Контур 3" d="M70.09 45.089H.924a.924.924 0 010-1.849H70.09a.924.924 0 010 1.849z"/><path data-name="Контур 4" d="M60.916 52.109H10.1a.924.924 0 010-1.849h50.817a.924.924 0 010 1.849z"/><path data-name="Контур 5" d="M47.992 59.129H23.023a.924.924 0 110-1.848h24.969a.924.924 0 110 1.848z"/><path data-name="Контур 6" d="M40.533 66.15H30.481a.924.924 0 010-1.849h10.052a.924.924 0 010 1.849z"/><path data-name="Контур 7" d="M35.507 45.089a.924.924 0 01-.924-.924v-32.31a.924.924 0 111.848 0v32.31a.924.924 0 01-.924.924z"/><path data-name="Контур 8" d="M35.507 27.618a.925.925 0 01-.011-1.849c6.138-.077 10.773-1.721 13.773-4.886a13.737 13.737 0 003.591-8.229c-14.562.05-16.44 6.309-16.458 6.373a.924.924 0 01-1.792-.452c.08-.327 2.193-7.98 19.219-7.764a.925.925 0 01.91.887 15.451 15.451 0 01-4.129 10.457c-3.357 3.54-8.434 5.379-15.091 5.463z"/><path data-name="Контур 9" d="M35.508 31.367c-5.832-.374-10.217-2.379-13.1-5.96-4.813-5.989-3.626-14.146-3.574-14.49a.924.924 0 011.057-.773c14.689 2.311 16.456 11.843 16.524 12.248a.924.924 0 01-1.822.31c-.063-.35-1.609-8.233-14.021-10.565-.145 2.215-.124 7.89 3.285 12.122 2.541 3.154 6.479 4.924 11.706 5.262a.924.924 0 01-.059 1.846z"/><path data-name="Контур 10" d="M35.506 23.788a.924.924 0 01-.147-1.836c.07-.012 7.068-1.2 10.091-5.706a.925.925 0 011.535 1.031c-3.475 5.176-11.011 6.448-11.33 6.5a.952.952 0 01-.149.011z"/><path data-name="Контур 11" d="M35.508 26.182a.987.987 0 01-.179-.017c-5.256-1.031-9.855-6.547-10.048-6.781a.924.924 0 011.425-1.177c.044.053 4.377 5.241 8.979 6.144a.924.924 0 01-.177 1.831z"/><path data-name="Контур 12" d="M35.507 12.779a.929.929 0 01-.554-.184c-4.438-3.32-2.079-9.423-.212-12.187a.892.892 0 01.787-.406.923.923 0 01.767.441c2.4 3.921 3.17 7.113 2.278 9.49a4.735 4.735 0 01-2.79 2.8.937.937 0 01-.276.046zm.006-9.984c-.981 1.984-2.294 5.693.131 7.971a2.968 2.968 0 001.212-1.519c.4-1.105.444-3.089-1.343-6.452z"/><path data-name="Контур 13" d="M45.493 45.089a.932.932 0 01-.554-.184c-4.438-3.321-2.08-9.424-.212-12.188a.883.883 0 01.786-.406.927.927 0 01.768.441c2.4 3.921 3.169 7.114 2.277 9.491a4.739 4.739 0 01-2.79 2.8.93.93 0 01-.275.046zm.006-9.985c-.981 1.984-2.294 5.693.13 7.971a2.964 2.964 0 001.212-1.518c.4-1.105.443-3.09-1.341-6.453z"/><path data-name="Контур 14" d="M58.2 45.089a.93.93 0 01-.553-.184c-6.295-4.709-2.892-13.449-.212-17.413a.878.878 0 01.786-.406.923.923 0 01.767.441c3.478 5.673 4.6 10.262 3.33 13.641a6.528 6.528 0 01-3.842 3.879.941.941 0 01-.276.042zm0-15.257c-1.507 2.8-4.336 9.422.145 13.264a4.773 4.773 0 002.257-2.615c.662-1.798.73-5.073-2.402-10.649z"/><path data-name="Контур 15" d="M25.522 45.089a.927.927 0 01-.275-.042 4.736 4.736 0 01-2.79-2.805c-.892-2.376-.126-5.569 2.277-9.49a.924.924 0 01.768-.441.9.9 0 01.786.406c1.867 2.764 4.226 8.867-.212 12.188a.932.932 0 01-.554.184zm-.007-9.985c-1.8 3.391-1.743 5.383-1.328 6.489a2.96 2.96 0 001.2 1.482c2.422-2.278 1.113-5.987.128-7.971z"/><path data-name="Контур 16" d="M12.81 45.089a.935.935 0 01-.275-.042 6.526 6.526 0 01-3.842-3.879c-1.268-3.379-.148-7.969 3.33-13.641a.923.923 0 01.767-.441.874.874 0 01.786.406c2.679 3.964 6.083 12.7-.212 17.413a.931.931 0 01-.554.184zm0-15.258c-3.129 5.577-3.062 8.852-2.4 10.649a4.776 4.776 0 002.257 2.616c4.493-3.85 1.656-10.472.145-13.265z"/></g></svg>