<svg xmlns="http://www.w3.org/2000/svg" width="72.06" height="52.485"><g data-name="Сгруппировать 15" fill="#7eaf00"><path data-name="Контур 17" d="M38.244 30.671H16.357a.924.924 0 01-.924-.924V11.868a11.868 11.868 0 1123.735 0v17.879a.924.924 0 01-.924.924zm-20.963-1.849H37.32V11.868a10.02 10.02 0 10-20.039 0z"/><path data-name="Контур 18" d="M48.526 30.671a.924.924 0 01-.924-.924V11.868a10.031 10.031 0 00-10.019-10.02.924.924 0 110-1.848A11.881 11.881 0 0149.45 11.868v17.879a.924.924 0 01-.924.924z"/><path data-name="Контур 19" d="M58.82 30.671a.925.925 0 01-.925-.924V11.868a10.03 10.03 0 00-10.019-10.02.924.924 0 010-1.848 11.882 11.882 0 0111.868 11.868v17.879a.924.924 0 01-.924.924z"/><path data-name="Контур 20" d="M69.11 30.671H38.241a.924.924 0 010-1.849h29.945V11.868a10.031 10.031 0 00-10.019-10.02H27.298a.924.924 0 110-1.848h30.869a11.882 11.882 0 0111.868 11.868v17.879a.925.925 0 01-.925.924z"/><path data-name="Контур 21" d="M69.11 12.792H16.354a.924.924 0 010-1.849H69.11a.924.924 0 110 1.849z"/><path data-name="Контур 22" d="M27.301 30.671a.925.925 0 01-.925-.924V11.868a.925.925 0 111.849 0v17.879a.924.924 0 01-.924.924z"/><path data-name="Контур 23" d="M71.136 30.671H.924a.924.924 0 010-1.849h70.212a.924.924 0 010 1.849z"/><path data-name="Контур 24" d="M39.345 52.486a.921.921 0 01-.894-.7c-4.3-16.917-18.148-21.115-18.287-21.155a.924.924 0 11.514-1.775c.611.177 15.007 4.543 19.564 22.475a.924.924 0 01-.668 1.123.941.941 0 01-.229.032z"/><path data-name="Контур 25" d="M48.152 52.486a.922.922 0 01-.894-.7c-4.3-16.917-18.148-21.115-18.287-21.155a.924.924 0 11.514-1.775c.611.177 15.007 4.543 19.564 22.475a.925.925 0 01-.668 1.123.942.942 0 01-.229.032z"/><path data-name="Контур 26" d="M56.959 52.486a.923.923 0 01-.894-.7c-4.287-16.871-18.149-21.115-18.289-21.155a.924.924 0 01.517-1.775c.611.177 15.007 4.543 19.563 22.475a.923.923 0 01-.668 1.123.941.941 0 01-.229.032z"/><path data-name="Контур 27" d="M71.136 34.896H45.998a.924.924 0 110-1.848h25.138a.924.924 0 110 1.848z"/><path data-name="Контур 28" d="M71.136 39.294H50.601a.924.924 0 010-1.849h20.535a.924.924 0 010 1.849z"/><path data-name="Контур 29" d="M71.136 43.686H53.642a.924.924 0 110-1.848h17.494a.924.924 0 110 1.848z"/><path data-name="Контур 30" d="M71.136 48.086H55.764a.924.924 0 110-1.848h15.372a.924.924 0 110 1.848z"/><path data-name="Контур 31" d="M71.136 52.486H57.21a.924.924 0 110-1.848h13.927a.924.924 0 110 1.848z"/><path data-name="Контур 32" d="M39.346 52.486H.924a.924.924 0 110-1.848h38.422a.924.924 0 110 1.848z"/><path data-name="Контур 33" d="M37.542 48.086H.924a.924.924 0 110-1.848h36.618a.924.924 0 110 1.848z"/><path data-name="Контур 34" d="M35.537 43.686H.924a.924.924 0 110-1.848h34.613a.924.924 0 110 1.848z"/><path data-name="Контур 35" d="M32.702 39.294H.924a.924.924 0 010-1.849h31.778a.924.924 0 010 1.849z"/><path data-name="Контур 36" d="M27.953 34.896H.924a.924.924 0 110-1.848h27.029a.924.924 0 010 1.848z"/><path data-name="Контур 37" d="M6.774 25.286a.926.926 0 01-.584-.207c-2.95-2.405-4.783-7.083-4.783-12.205S3.24 3.074 6.19.668a.928.928 0 011.168 0c2.95 2.406 4.782 7.084 4.782 12.206s-1.832 9.8-4.782 12.205a.928.928 0 01-.584.207zm0-22.656C4.588 4.824 3.255 8.657 3.255 12.874s1.333 8.051 3.519 10.243c2.186-2.192 3.518-6.026 3.518-10.243S8.96 4.829 6.774 2.635z"/><path data-name="Контур 38" d="M6.774 30.671a.924.924 0 01-.925-.924v-5.38a.924.924 0 011.849 0v5.38a.924.924 0 01-.924.924z"/></g></svg>