<svg xmlns="http://www.w3.org/2000/svg" width="71.242" height="49.606" viewBox="0 0 71.242 49.606">
  <g id="Сгруппировать_50" data-name="Сгруппировать 50" transform="translate(-3542.568 -2219.609)">
    <path id="Контур_106" data-name="Контур 106" d="M3612.886,2245.615h-69.393a.924.924,0,1,1,0-1.849h69.393a.924.924,0,0,1,0,1.849Z" fill="#fff"/>
    <path id="Контур_107" data-name="Контур 107" d="M3566,2269.215a.925.925,0,0,1-.9-.7c-4.661-18.342-19.685-22.9-19.836-22.94a.924.924,0,1,1,.514-1.775c.162.047,16.2,4.9,21.113,24.26a.924.924,0,0,1-.668,1.123A.9.9,0,0,1,3566,2269.215Z" fill="#fff"/>
    <path id="Контур_108" data-name="Контур 108" d="M3575.531,2269.215a.925.925,0,0,1-.9-.7c-4.65-18.3-19.686-22.9-19.837-22.94a.924.924,0,0,1,.515-1.775c.162.047,16.2,4.9,21.113,24.26a.924.924,0,0,1-.668,1.123A.9.9,0,0,1,3575.531,2269.215Z" fill="#fff"/>
    <path id="Контур_109" data-name="Контур 109" d="M3585.059,2269.215a.923.923,0,0,1-.9-.7,38.13,38.13,0,0,0-1.623-4.959.924.924,0,0,1,1.712-.7,39.8,39.8,0,0,1,1.7,5.2.924.924,0,0,1-.668,1.123A.9.9,0,0,1,3585.059,2269.215Z" fill="#fff"/>
    <path id="Контур_110" data-name="Контур 110" d="M3579.011,2256.366a.92.92,0,0,1-.739-.368,30.251,30.251,0,0,0-13.945-10.42.924.924,0,0,1,.515-1.775,31.532,31.532,0,0,1,14.906,11.083.924.924,0,0,1-.737,1.48Z" fill="#fff"/>
    <path id="Контур_111" data-name="Контур 111" d="M3594.587,2269.215a.924.924,0,0,1-.9-.7,38.36,38.36,0,0,0-1.333-4.222.924.924,0,0,1,1.727-.659,40.123,40.123,0,0,1,1.4,4.426.924.924,0,0,1-.668,1.123A.9.9,0,0,1,3594.587,2269.215Z" fill="#fff"/>
    <path id="Контур_112" data-name="Контур 112" d="M3583.162,2250.767a.918.918,0,0,1-.585-.209,27.7,27.7,0,0,0-8.721-4.98.924.924,0,1,1,.514-1.775,29.151,29.151,0,0,1,9.378,5.325.924.924,0,0,1-.586,1.639Z" fill="#fff"/>
    <path id="Контур_113" data-name="Контур 113" d="M3604.115,2269.215a.926.926,0,0,1-.9-.7,37.912,37.912,0,0,0-1.764-5.3.924.924,0,0,1,1.7-.714,39.809,39.809,0,0,1,1.851,5.562.925.925,0,0,1-.668,1.123A.9.9,0,0,1,3604.115,2269.215Z" fill="#fff"/>
    <path id="Контур_114" data-name="Контур 114" d="M3591.639,2249.941a.912.912,0,0,1-.555-.186,27.064,27.064,0,0,0-7.7-4.177.924.924,0,0,1,.515-1.775,28.339,28.339,0,0,1,8.3,4.476.924.924,0,0,1-.557,1.662Z" fill="#fff"/>
    <path id="Контур_115" data-name="Контур 115" d="M3612.886,2250.186H3608.7a.925.925,0,1,1,0-1.849h4.188a.925.925,0,0,1,0,1.849Z" fill="#fff"/>
    <path id="Контур_116" data-name="Контур 116" d="M3612.886,2254.943h-4.479a.924.924,0,0,1,0-1.848h4.479a.924.924,0,0,1,0,1.848Z" fill="#fff"/>
    <path id="Контур_117" data-name="Контур 117" d="M3612.886,2259.7h-1.2a.924.924,0,1,1,0-1.848h1.2a.924.924,0,1,1,0,1.848Z" fill="#fff"/>
    <path id="Контур_118" data-name="Контур 118" d="M3612.886,2264.458h-4.595a.925.925,0,0,1,0-1.849h4.595a.925.925,0,0,1,0,1.849Z" fill="#fff"/>
    <path id="Контур_119" data-name="Контур 119" d="M3612.886,2269.215h-8.5a.925.925,0,0,1,0-1.849h8.5a.925.925,0,0,1,0,1.849Z" fill="#fff"/>
    <path id="Контур_120" data-name="Контур 120" d="M3560.721,2241.148a7.9,7.9,0,0,1-7.89-7.89,6.5,6.5,0,0,1,6.5-6.5,5.388,5.388,0,0,1,5.382,5.382,4.5,4.5,0,0,1-4.49,4.491,3.782,3.782,0,0,1-3.778-3.777.925.925,0,0,1,1.849,0,1.931,1.931,0,0,0,1.929,1.929,2.645,2.645,0,0,0,2.642-2.643,3.538,3.538,0,0,0-3.534-3.534,4.654,4.654,0,0,0-4.648,4.649,6.049,6.049,0,0,0,6.041,6.042,7.792,7.792,0,0,0,7.783-7.783,9.971,9.971,0,0,0-9.96-9.961.924.924,0,0,1,0-1.849,11.823,11.823,0,0,1,11.809,11.81A9.642,9.642,0,0,1,3560.721,2241.148Z" fill="#fff"/>
    <path id="Контур_121" data-name="Контур 121" d="M3560.04,2245.615a13,13,0,1,1,13-13A13.018,13.018,0,0,1,3560.04,2245.615Zm0-24.158a11.155,11.155,0,1,0,11.155,11.155A11.167,11.167,0,0,0,3560.04,2221.457Z" fill="#fff"/>
    <path id="Контур_122" data-name="Контур 122" d="M3580.912,2245.615H3560.04a.924.924,0,0,1,0-1.849,11.155,11.155,0,1,0,0-22.309.924.924,0,0,1,0-1.848h20.872a13,13,0,0,1,0,26.006Zm-14.2-1.849h14.2a11.155,11.155,0,0,0,0-22.309h-14.2a13,13,0,0,1,0,22.309Z" fill="#fff"/>
    <path id="Контур_123" data-name="Контур 123" d="M3580.912,2228.647h-3.117a.924.924,0,0,1,0-1.849h3.117a.924.924,0,0,1,0,1.849Z" fill="#fff"/>
    <path id="Контур_124" data-name="Контур 124" d="M3585.656,2238.713h-3.875a.924.924,0,0,1,0-1.849h3.875a.924.924,0,0,1,0,1.849Z" fill="#fff"/>
    <path id="Контур_125" data-name="Контур 125" d="M3586.116,2264.521a8.031,8.031,0,1,1,8.031-8.031A8.041,8.041,0,0,1,3586.116,2264.521Zm0-14.213a6.182,6.182,0,1,0,6.182,6.182A6.189,6.189,0,0,0,3586.116,2250.308Z" fill="#fff"/>
    <path id="Контур_126" data-name="Контур 126" d="M3586.116,2260.148a3.662,3.662,0,0,1-3.657-3.658.925.925,0,0,1,1.849,0,1.808,1.808,0,1,0,1.808-1.808.924.924,0,1,1,0-1.848,3.657,3.657,0,1,1,0,7.314Z" fill="#fff"/>
    <path id="Контур_127" data-name="Контур 127" d="M3598.4,2264.521h-12.279a.924.924,0,0,1,0-1.849,6.182,6.182,0,1,0,0-12.364.924.924,0,0,1,0-1.848H3598.4a8.031,8.031,0,1,1,0,16.061Zm-7.159-1.849h7.159a6.182,6.182,0,0,0,0-12.364h-7.159a8.02,8.02,0,0,1,0,12.364Z" fill="#fff"/>
    <path id="Контур_128" data-name="Контур 128" d="M3605.814,2245.615a8.477,8.477,0,0,1-8.467-8.468.924.924,0,0,1,1.848,0,6.627,6.627,0,0,0,6.619,6.619,5.116,5.116,0,0,0,5.111-5.11,3.908,3.908,0,0,0-3.9-3.9,2.941,2.941,0,0,0-2.938,2.938,2.169,2.169,0,0,0,2.166,2.166,1.549,1.549,0,0,0,1.547-1.548,1.071,1.071,0,0,0-.018-.2.924.924,0,1,1,1.816-.343,2.831,2.831,0,0,1,.051.54,3.4,3.4,0,0,1-3.4,3.4,4.018,4.018,0,0,1-4.014-4.014,4.791,4.791,0,0,1,4.786-4.786,5.758,5.758,0,0,1,5.752,5.752A6.966,6.966,0,0,1,3605.814,2245.615Z" fill="#fff"/>
  </g>
</svg>
