<svg xmlns="http://www.w3.org/2000/svg" width="71.242" height="49.606"><g data-name="Сгруппировать 50" fill="#fff"><path data-name="Контур 106" d="M70.318 26.006H.925a.924.924 0 110-1.849h69.393a.924.924 0 010 1.849z"/><path data-name="Контур 107" d="M23.432 49.606a.925.925 0 01-.9-.7c-4.661-18.342-19.685-22.9-19.836-22.94a.924.924 0 11.514-1.775c.162.047 16.2 4.9 21.113 24.26a.924.924 0 01-.668 1.123.9.9 0 01-.223.032z"/><path data-name="Контур 108" d="M32.963 49.606a.925.925 0 01-.9-.7c-4.65-18.3-19.686-22.9-19.837-22.94a.924.924 0 01.515-1.775c.162.047 16.2 4.9 21.113 24.26a.924.924 0 01-.668 1.123.9.9 0 01-.223.032z"/><path data-name="Контур 109" d="M42.491 49.606a.923.923 0 01-.9-.7 38.13 38.13 0 00-1.623-4.959.925.925 0 011.712-.7 39.8 39.8 0 011.7 5.2.924.924 0 01-.668 1.123.9.9 0 01-.221.036z"/><path data-name="Контур 110" d="M36.443 36.757a.92.92 0 01-.739-.368 30.251 30.251 0 00-13.945-10.42.924.924 0 01.515-1.775A31.532 31.532 0 0137.18 35.277a.924.924 0 01-.737 1.48z"/><path data-name="Контур 111" d="M52.019 49.606a.924.924 0 01-.9-.7 38.36 38.36 0 00-1.333-4.222.924.924 0 011.727-.659 40.123 40.123 0 011.4 4.426.924.924 0 01-.668 1.123.9.9 0 01-.226.032z"/><path data-name="Контур 112" d="M40.594 31.158a.918.918 0 01-.585-.209 27.7 27.7 0 00-8.721-4.98.924.924 0 11.514-1.775 29.151 29.151 0 019.378 5.325.924.924 0 01-.586 1.639z"/><path data-name="Контур 113" d="M61.547 49.606a.926.926 0 01-.9-.7 37.912 37.912 0 00-1.764-5.3.924.924 0 011.7-.714 39.809 39.809 0 011.851 5.562.925.925 0 01-.668 1.123.9.9 0 01-.219.029z"/><path data-name="Контур 114" d="M49.071 30.332a.912.912 0 01-.555-.186 27.064 27.064 0 00-7.7-4.177.924.924 0 01.515-1.775 28.339 28.339 0 018.3 4.476.924.924 0 01-.557 1.662z"/><path data-name="Контур 115" d="M70.318 30.577h-4.186a.925.925 0 110-1.849h4.188a.925.925 0 010 1.849z"/><path data-name="Контур 116" d="M70.318 35.334h-4.479a.924.924 0 010-1.848h4.479a.924.924 0 010 1.848z"/><path data-name="Контур 117" d="M70.318 40.091h-1.2a.924.924 0 110-1.848h1.2a.924.924 0 110 1.848z"/><path data-name="Контур 118" d="M70.318 44.849h-4.595a.925.925 0 010-1.849h4.595a.925.925 0 010 1.849z"/><path data-name="Контур 119" d="M70.318 49.606h-8.5a.925.925 0 010-1.849h8.5a.925.925 0 010 1.849z"/><path data-name="Контур 120" d="M18.153 21.539a7.9 7.9 0 01-7.89-7.89 6.5 6.5 0 016.5-6.5 5.388 5.388 0 015.382 5.382 4.5 4.5 0 01-4.49 4.491 3.782 3.782 0 01-3.778-3.777.925.925 0 011.849 0 1.931 1.931 0 001.929 1.929 2.645 2.645 0 002.642-2.643 3.538 3.538 0 00-3.534-3.534 4.654 4.654 0 00-4.648 4.649 6.049 6.049 0 006.041 6.042 7.792 7.792 0 007.783-7.783 9.971 9.971 0 00-9.96-9.961.924.924 0 010-1.849 11.823 11.823 0 0111.809 11.81 9.642 9.642 0 01-9.635 9.634z"/><path data-name="Контур 121" d="M17.472 26.006a13 13 0 1113-13 13.018 13.018 0 01-13 13zm0-24.158a11.155 11.155 0 1011.155 11.155A11.167 11.167 0 0017.472 1.848z"/><path data-name="Контур 122" d="M38.344 26.006H17.472a.924.924 0 010-1.849 11.155 11.155 0 100-22.309.924.924 0 010-1.848h20.872a13.003 13.003 0 010 26.006zm-14.2-1.849h14.2a11.155 11.155 0 000-22.309h-14.2a13 13 0 010 22.309z"/><path data-name="Контур 123" d="M38.344 9.038h-3.117a.924.924 0 010-1.849h3.117a.924.924 0 010 1.849z"/><path data-name="Контур 124" d="M43.088 19.104h-3.875a.924.924 0 010-1.849h3.875a.924.924 0 010 1.849z"/><path data-name="Контур 125" d="M43.548 44.912a8.031 8.031 0 118.031-8.031 8.041 8.041 0 01-8.031 8.031zm0-14.213a6.182 6.182 0 106.182 6.182 6.189 6.189 0 00-6.182-6.182z"/><path data-name="Контур 126" d="M43.548 40.539a3.662 3.662 0 01-3.657-3.658.925.925 0 011.849 0 1.808 1.808 0 101.808-1.808.924.924 0 110-1.848 3.657 3.657 0 110 7.314z"/><path data-name="Контур 127" d="M55.832 44.912H43.553a.924.924 0 010-1.849 6.182 6.182 0 100-12.364.924.924 0 010-1.848h12.279a8.031 8.031 0 110 16.061zm-7.159-1.849h7.159a6.182 6.182 0 000-12.364h-7.159a8.02 8.02 0 010 12.364z"/><path data-name="Контур 128" d="M63.246 26.006a8.477 8.477 0 01-8.467-8.468.924.924 0 011.848 0 6.627 6.627 0 006.619 6.619 5.116 5.116 0 005.111-5.11 3.908 3.908 0 00-3.9-3.9 2.941 2.941 0 00-2.938 2.938 2.169 2.169 0 002.166 2.166 1.549 1.549 0 001.547-1.548 1.071 1.071 0 00-.018-.2.924.924 0 111.816-.343 2.831 2.831 0 01.051.54 3.4 3.4 0 01-3.4 3.4 4.018 4.018 0 01-4.014-4.014 4.791 4.791 0 014.786-4.786 5.758 5.758 0 015.752 5.752 6.966 6.966 0 01-6.959 6.954z"/></g></svg>